<mxfile host="Electron" modified="2023-12-05T16:09:43.910Z" agent="Mozilla/5.0 (Windows NT 10.0; Win64; x64) AppleWebKit/537.36 (KHTML, like Gecko) draw.io/22.0.3 Chrome/114.0.5735.289 Electron/25.8.4 Safari/537.36" etag="r5oZWpK_uxdyY_O5UYb4" version="22.0.3" type="device">
  <diagram name="Page-1" id="dQq_sxYRf2Paqsmh5ATd">
    <mxGraphModel dx="4315" dy="2780" grid="1" gridSize="10" guides="1" tooltips="1" connect="1" arrows="1" fold="1" page="1" pageScale="1" pageWidth="850" pageHeight="1100" math="0" shadow="0">
      <root>
        <mxCell id="0" />
        <mxCell id="1" parent="0" />
        <mxCell id="t8uLsHS5nV-Fre8a65G6-3" value="" style="edgeStyle=orthogonalEdgeStyle;rounded=0;orthogonalLoop=1;jettySize=auto;html=1;" parent="1" source="t8uLsHS5nV-Fre8a65G6-1" target="t8uLsHS5nV-Fre8a65G6-2" edge="1">
          <mxGeometry relative="1" as="geometry" />
        </mxCell>
        <mxCell id="t8uLsHS5nV-Fre8a65G6-1" value="start" style="ellipse;whiteSpace=wrap;html=1;" parent="1" vertex="1">
          <mxGeometry x="365" y="20" width="120" height="80" as="geometry" />
        </mxCell>
        <mxCell id="t8uLsHS5nV-Fre8a65G6-5" value="" style="edgeStyle=orthogonalEdgeStyle;rounded=0;orthogonalLoop=1;jettySize=auto;html=1;" parent="1" source="t8uLsHS5nV-Fre8a65G6-2" target="t8uLsHS5nV-Fre8a65G6-4" edge="1">
          <mxGeometry relative="1" as="geometry" />
        </mxCell>
        <mxCell id="t8uLsHS5nV-Fre8a65G6-2" value="input n" style="rhombus;whiteSpace=wrap;html=1;" parent="1" vertex="1">
          <mxGeometry x="385" y="180" width="80" height="80" as="geometry" />
        </mxCell>
        <mxCell id="t8uLsHS5nV-Fre8a65G6-7" value="" style="edgeStyle=orthogonalEdgeStyle;rounded=0;orthogonalLoop=1;jettySize=auto;html=1;" parent="1" source="t8uLsHS5nV-Fre8a65G6-4" target="t8uLsHS5nV-Fre8a65G6-6" edge="1">
          <mxGeometry relative="1" as="geometry" />
        </mxCell>
        <mxCell id="t8uLsHS5nV-Fre8a65G6-4" value="&lt;div style=&quot;color: rgb(204, 204, 204); background-color: rgb(31, 31, 31); font-family: Consolas, &amp;quot;Courier New&amp;quot;, monospace; font-size: 14px; line-height: 19px;&quot;&gt;&amp;nbsp;f &lt;span style=&quot;color: #d4d4d4;&quot;&gt;=&lt;/span&gt; &lt;span style=&quot;color: #dcdcaa;&quot;&gt;fopen&lt;/span&gt;(&lt;span style=&quot;color: #ce9178;&quot;&gt;&quot;bt01.txt&quot;&lt;/span&gt;,&lt;span style=&quot;color: #ce9178;&quot;&gt;&quot;r&quot;&lt;/span&gt;);&lt;/div&gt;" style="rounded=0;whiteSpace=wrap;html=1;" parent="1" vertex="1">
          <mxGeometry x="365" y="310" width="245" height="60" as="geometry" />
        </mxCell>
        <mxCell id="t8uLsHS5nV-Fre8a65G6-10" value="" style="edgeStyle=orthogonalEdgeStyle;rounded=0;orthogonalLoop=1;jettySize=auto;html=1;" parent="1" source="t8uLsHS5nV-Fre8a65G6-6" target="t8uLsHS5nV-Fre8a65G6-8" edge="1">
          <mxGeometry relative="1" as="geometry" />
        </mxCell>
        <mxCell id="t8uLsHS5nV-Fre8a65G6-13" value="true" style="edgeStyle=orthogonalEdgeStyle;rounded=0;orthogonalLoop=1;jettySize=auto;html=1;" parent="1" source="-E8q_5P5ILOwaAXtl-xJ-1" target="t8uLsHS5nV-Fre8a65G6-12" edge="1">
          <mxGeometry relative="1" as="geometry" />
        </mxCell>
        <mxCell id="t8uLsHS5nV-Fre8a65G6-6" value="f == null" style="rhombus;whiteSpace=wrap;html=1;rounded=0;" parent="1" vertex="1">
          <mxGeometry x="447.5" y="440" width="80" height="80" as="geometry" />
        </mxCell>
        <mxCell id="t8uLsHS5nV-Fre8a65G6-8" value="return 0" style="shape=parallelogram;perimeter=parallelogramPerimeter;whiteSpace=wrap;html=1;fixedSize=1;" parent="1" vertex="1">
          <mxGeometry x="230" y="440" width="120" height="60" as="geometry" />
        </mxCell>
        <mxCell id="t8uLsHS5nV-Fre8a65G6-12" value="&lt;div style=&quot;color: rgb(204, 204, 204); background-color: rgb(31, 31, 31); font-family: Consolas, &amp;quot;Courier New&amp;quot;, monospace; font-size: 14px; line-height: 19px;&quot;&gt;&lt;div style=&quot;line-height: 19px;&quot;&gt;&lt;div style=&quot;line-height: 19px;&quot;&gt;&lt;div style=&quot;border-color: var(--border-color);&quot;&gt;gets(&lt;span style=&quot;border-color: var(--border-color); color: rgb(156, 220, 254);&quot;&gt;x&lt;/span&gt;);&lt;/div&gt;&lt;div style=&quot;border-color: var(--border-color);&quot;&gt;&amp;nbsp; &amp;nbsp; &amp;nbsp; &amp;nbsp;&amp;nbsp;&lt;span style=&quot;border-color: var(--border-color); color: rgb(220, 220, 170);&quot;&gt;fprintf&lt;/span&gt;(&lt;span style=&quot;border-color: var(--border-color); color: rgb(156, 220, 254);&quot;&gt;f&lt;/span&gt;,&amp;nbsp;&lt;span style=&quot;border-color: var(--border-color); color: rgb(206, 145, 120);&quot;&gt;&quot;&lt;/span&gt;&lt;span style=&quot;border-color: var(--border-color); color: rgb(156, 220, 254);&quot;&gt;%s&lt;/span&gt;&lt;span style=&quot;border-color: var(--border-color); color: rgb(215, 186, 125);&quot;&gt;\n&lt;/span&gt;&lt;span style=&quot;border-color: var(--border-color); color: rgb(206, 145, 120);&quot;&gt;&quot;&lt;/span&gt;,&amp;nbsp;&lt;span style=&quot;border-color: var(--border-color); color: rgb(156, 220, 254);&quot;&gt;x&lt;/span&gt;);&lt;/div&gt;&lt;div style=&quot;border-color: var(--border-color);&quot;&gt;&amp;nbsp; &amp;nbsp; }&lt;/div&gt;&lt;/div&gt;&lt;/div&gt;&lt;/div&gt;" style="rounded=0;whiteSpace=wrap;html=1;" parent="1" vertex="1">
          <mxGeometry x="280" y="730" width="355" height="90" as="geometry" />
        </mxCell>
        <mxCell id="t8uLsHS5nV-Fre8a65G6-14" value="true" style="text;html=1;strokeColor=none;fillColor=none;align=center;verticalAlign=middle;whiteSpace=wrap;rounded=0;" parent="1" vertex="1">
          <mxGeometry x="528" y="450" width="60" height="30" as="geometry" />
        </mxCell>
        <mxCell id="t8uLsHS5nV-Fre8a65G6-15" value="false" style="text;html=1;strokeColor=none;fillColor=none;align=center;verticalAlign=middle;whiteSpace=wrap;rounded=0;" parent="1" vertex="1">
          <mxGeometry x="440" y="520" width="60" height="30" as="geometry" />
        </mxCell>
        <mxCell id="t8uLsHS5nV-Fre8a65G6-19" value="" style="edgeStyle=orthogonalEdgeStyle;rounded=0;orthogonalLoop=1;jettySize=auto;html=1;" parent="1" source="t8uLsHS5nV-Fre8a65G6-16" target="t8uLsHS5nV-Fre8a65G6-18" edge="1">
          <mxGeometry relative="1" as="geometry" />
        </mxCell>
        <mxCell id="t8uLsHS5nV-Fre8a65G6-16" value="fclose(f)" style="whiteSpace=wrap;html=1;rounded=0;" parent="1" vertex="1">
          <mxGeometry x="110" y="1010" width="120" height="60" as="geometry" />
        </mxCell>
        <mxCell id="t8uLsHS5nV-Fre8a65G6-18" value="end" style="ellipse;whiteSpace=wrap;html=1;rounded=0;" parent="1" vertex="1">
          <mxGeometry x="120" y="1150" width="80" height="80" as="geometry" />
        </mxCell>
        <mxCell id="-E8q_5P5ILOwaAXtl-xJ-2" value="" style="edgeStyle=orthogonalEdgeStyle;rounded=0;orthogonalLoop=1;jettySize=auto;html=1;" parent="1" source="t8uLsHS5nV-Fre8a65G6-6" target="-E8q_5P5ILOwaAXtl-xJ-1" edge="1">
          <mxGeometry relative="1" as="geometry">
            <mxPoint x="488" y="520" as="sourcePoint" />
            <mxPoint x="458" y="730" as="targetPoint" />
          </mxGeometry>
        </mxCell>
        <mxCell id="-E8q_5P5ILOwaAXtl-xJ-1" value="i&amp;lt;n" style="rhombus;whiteSpace=wrap;html=1;" parent="1" vertex="1">
          <mxGeometry x="425" y="580" width="80" height="80" as="geometry" />
        </mxCell>
        <mxCell id="-E8q_5P5ILOwaAXtl-xJ-4" value="" style="edgeStyle=orthogonalEdgeStyle;rounded=0;orthogonalLoop=1;jettySize=auto;html=1;" parent="1" source="t8uLsHS5nV-Fre8a65G6-12" target="-E8q_5P5ILOwaAXtl-xJ-3" edge="1">
          <mxGeometry relative="1" as="geometry">
            <mxPoint x="458" y="820" as="sourcePoint" />
            <mxPoint x="458" y="970" as="targetPoint" />
          </mxGeometry>
        </mxCell>
        <mxCell id="-E8q_5P5ILOwaAXtl-xJ-5" style="edgeStyle=orthogonalEdgeStyle;rounded=0;orthogonalLoop=1;jettySize=auto;html=1;" parent="1" source="-E8q_5P5ILOwaAXtl-xJ-3" edge="1">
          <mxGeometry relative="1" as="geometry">
            <mxPoint x="490" y="540" as="targetPoint" />
            <Array as="points">
              <mxPoint x="770" y="880" />
              <mxPoint x="770" y="540" />
            </Array>
          </mxGeometry>
        </mxCell>
        <mxCell id="-E8q_5P5ILOwaAXtl-xJ-3" value="i++" style="rounded=0;whiteSpace=wrap;html=1;" parent="1" vertex="1">
          <mxGeometry x="397.5" y="850" width="120" height="60" as="geometry" />
        </mxCell>
        <mxCell id="-E8q_5P5ILOwaAXtl-xJ-7" value="false" style="edgeStyle=orthogonalEdgeStyle;rounded=0;orthogonalLoop=1;jettySize=auto;html=1;entryX=0.368;entryY=0.052;entryDx=0;entryDy=0;entryPerimeter=0;" parent="1" source="-E8q_5P5ILOwaAXtl-xJ-1" target="t8uLsHS5nV-Fre8a65G6-16" edge="1">
          <mxGeometry relative="1" as="geometry" />
        </mxCell>
      </root>
    </mxGraphModel>
  </diagram>
</mxfile>
